# xmcd
#
# Track frame offsets: 
#        150
#        24168
#        45863
#        61443
#        79768
#        108563
#        125743
#        141843
#        158555
#        180318
#
# Disc length: 2748 seconds
#
# Revision: 3
# Processed by: cddbd v1.5.2PL0 Copyright (c) Steve Scherf et al.
# Submitted via: ExactAudioCopy v1.0b3
#
DISCID=760aba0a
DTITLE=Brownie McGhee and Sonny Terry - At the 2nd Fret
DYEAR=1962
DGENRE=Blues
TTITLE0=Evil Hearted Me
TTITLE1=Sick Man
TTITLE2=Barking Bull Dog
TTITLE3=Spread the News Around
TTITLE4=Backwater Blues
TTITLE5=Custard Pie
TTITLE6=Wholesale Dealin' Papa
TTITLE7=Motorcycle Blues
TTITLE8=Hand in Hand
TTITLE9=I Woke Up One Morning and I Could Hardly See
EXTD=YEAR: 1962 ID3G: 0
EXTT0=
EXTT1=
EXTT2=
EXTT3=
EXTT4=
EXTT5=
EXTT6=
EXTT7=
EXTT8=
EXTT9=
PLAYORDER=
